# xmcd CD database file
#
# Track frame offsets:
#	182
#	34887
#	52907
#	85575
#	107672
#	136575
#	165702
#	195615
#	227262
#	246637
#	268670
#
# Disc length: 3744 seconds
#
# Revision: 0
# Processed by: cddbd v1.5.2PL0 Copyright (c) Steve Scherf et al.
# Submitted via: CDex 1.51
#
DISCID=870e9e0b
DTITLE=Mark Joggerst - Eda Zari - The Art Of Time
DYEAR=1900
DGENRE=Jazz
TTITLE0=Song For Eda
TTITLE1=You Don't Know What Love Is
TTITLE2=Dancing Alone
TTITLE3=Come Rain Or Come Shine
TTITLE4=Remember The Time
TTITLE5=Once I Loved
TTITLE6=Time To Tell The Truth
TTITLE7=Body And Soul
TTITLE8=Falling Back
TTITLE9=The Man I Love
TTITLE10=Never Again
EXTD=
EXTT0=
EXTT1=
EXTT2=
EXTT3=
EXTT4=
EXTT5=
EXTT6=
EXTT7=
EXTT8=
EXTT9=
EXTT10=
PLAYORDER=
